<svg width="50" height="50" viewBox="0 0 50 50" fill="none" xmlns="http://www.w3.org/2000/svg">
<circle cx="25" cy="25" r="24.5" stroke="#B9B9B9"/>
<path d="M25.5867 30.2134C25.5867 30.692 25.1987 31.08 24.72 31.08C24.2414 31.08 23.8534 30.692 23.8534 30.2134V25.6134H19.2267C18.7333 25.6134 18.3334 25.2134 18.3334 24.72C18.3334 24.2267 18.7333 23.8267 19.2267 23.8267H23.8534V19.2C23.8534 18.7214 24.2414 18.3334 24.72 18.3334C25.1987 18.3334 25.5867 18.7214 25.5867 19.2V23.8267H30.2134C30.7067 23.8267 31.1067 24.2267 31.1067 24.72C31.1067 25.2134 30.7067 25.6134 30.2134 25.6134H25.5867V30.2134Z" fill="#B9B9B9"/>
</svg>
