<svg width="20" height="20" viewBox="0 0 20 20" fill="none" xmlns="http://www.w3.org/2000/svg">
<circle cx="10" cy="10" r="10" fill="#F33333"/>
<path d="M9 13.32C9 12.9911 9.11111 12.7156 9.33333 12.4933C9.56444 12.2711 9.84 12.16 10.16 12.16C10.48 12.16 10.7511 12.2711 10.9733 12.4933C11.1956 12.7156 11.3067 12.9911 11.3067 13.32C11.3067 13.64 11.1956 13.9156 10.9733 14.1467C10.7511 14.3689 10.48 14.48 10.16 14.48C9.84 14.48 9.56444 14.3689 9.33333 14.1467C9.11111 13.9156 9 13.64 9 13.32ZM10.88 11.2267H9.42667L9.01333 5H11.3067L10.88 11.2267Z" fill="white"/>
</svg>
