<svg width="16" height="20" viewBox="0 0 16 20" fill="none" xmlns="http://www.w3.org/2000/svg">
<g clip-path="url(#clip0_2_256)">
<path d="M15.083 4.81509C15.0792 4.79245 15.0717 4.76981 15.0642 4.74717C15.0604 4.73585 15.0566 4.72075 15.0528 4.70943C15.0415 4.68302 15.0302 4.66038 15.0151 4.63774C15.0113 4.63019 15.0075 4.61887 15 4.61132C14.9811 4.58113 14.9547 4.55094 14.9321 4.5283L10.5849 0.166038C10.5585 0.139623 10.5283 0.116981 10.4981 0.0943396C10.4943 0.090566 10.4868 0.0867925 10.4792 0.0830189C10.4528 0.0679245 10.4264 0.0528302 10.4 0.0415094C10.3887 0.0377358 10.3774 0.0377358 10.366 0.0339623C10.3434 0.0264151 10.3208 0.0188679 10.2943 0.0113208C10.2566 0.00377358 10.2226 0 10.1811 0H0.566038C0.25283 0 0 0.25283 0 0.566038V19.434C0 19.7472 0.25283 20 0.566038 20H14.5283C14.8415 20 15.0943 19.7472 15.0943 19.434V4.9283C15.0943 4.89057 15.0906 4.85283 15.083 4.81509ZM10.7472 1.93585L13.1623 4.36226H10.7472V1.93585ZM1.13208 18.8679V1.13208H9.61509V4.9283C9.61509 5.24151 9.86792 5.49434 10.1811 5.49434H13.9623V18.8679H1.13208Z" fill="white"/>
<path d="M12.0114 9.11322H3.08313C2.76992 9.11322 2.51709 9.36605 2.51709 9.67926C2.51709 9.99247 2.76992 10.2453 3.08313 10.2453H12.0152C12.3284 10.2453 12.5812 9.99247 12.5812 9.67926C12.5812 9.36605 12.3246 9.11322 12.0114 9.11322Z" fill="white"/>
<path d="M12.0114 12.1736H3.08313C2.76992 12.1736 2.51709 12.4264 2.51709 12.7396C2.51709 13.0528 2.76992 13.3057 3.08313 13.3057H12.0152C12.3284 13.3057 12.5812 13.0528 12.5812 12.7396C12.5812 12.4264 12.3246 12.1736 12.0114 12.1736Z" fill="white"/>
<path d="M9.12086 15.2339H3.08313C2.76992 15.2339 2.51709 15.4868 2.51709 15.8C2.51709 16.1132 2.76992 16.366 3.08313 16.366H9.12086C9.43407 16.366 9.6869 16.1132 9.6869 15.8C9.6869 15.4868 9.43407 15.2339 9.12086 15.2339Z" fill="white"/>
</g>
<defs>
<clipPath id="clip0_2_256">
<rect width="15.0943" height="20" fill="white"/>
</clipPath>
</defs>
</svg>
