<svg width="20" height="20" viewBox="0 0 20 20" fill="none" xmlns="http://www.w3.org/2000/svg">
<g clip-path="url(#clip0_2_236)">
<path d="M1.93208 1.13208H4.51698C4.83019 1.13208 5.08302 0.879245 5.08302 0.566038C5.08302 0.25283 4.83019 0 4.52075 0H0.566038C0.49434 0 0.422641 0.0150943 0.35849 0.0415094C0.354717 0.0415094 0.354717 0.0415094 0.350943 0.045283C0.211321 0.101887 0.101887 0.211321 0.0415094 0.350943C0.0415094 0.354717 0.0415094 0.354717 0.0377358 0.358491C0.0150943 0.422641 0 0.49434 0 0.566038V4.52075C0 4.83396 0.25283 5.08679 0.566038 5.08679C0.879245 5.08679 1.13208 4.83019 1.13208 4.52075V1.93208L4.90943 5.70943C5.01887 5.81887 5.16604 5.87547 5.30943 5.87547C5.45283 5.87547 5.6 5.81887 5.70943 5.70943C5.93207 5.48679 5.93207 5.1283 5.70943 4.90943L1.93208 1.13208Z" fill="white"/>
<path d="M19.9583 0.358491C19.9583 0.354717 19.9583 0.354717 19.9545 0.350943C19.8979 0.211321 19.7847 0.101887 19.6451 0.0415094C19.6413 0.0415094 19.6413 0.0415094 19.6376 0.0377358C19.5772 0.0150943 19.5055 0 19.4338 0H15.4791C15.1659 0 14.913 0.25283 14.913 0.566038C14.913 0.879245 15.1696 1.13208 15.4791 1.13208H18.064L14.2904 4.90943C14.0678 5.13208 14.0678 5.49057 14.2904 5.70943C14.3998 5.81887 14.547 5.87547 14.6904 5.87547C14.8338 5.87547 14.981 5.81887 15.0904 5.70943L18.8678 1.93208V4.51698C18.8678 4.83019 19.1206 5.08302 19.4338 5.08302C19.747 5.08302 19.9998 4.83019 19.9998 4.51698V0.566038C19.9998 0.49434 19.9847 0.422641 19.9583 0.358491Z" fill="white"/>
<path d="M4.90943 14.2906L1.13208 18.0679V15.483C1.13208 15.1698 0.879245 14.917 0.566038 14.917C0.25283 14.917 0 15.1698 0 15.4793V19.434C0 19.5057 0.0150943 19.5774 0.0415094 19.6415C0.0415094 19.6453 0.0415094 19.6453 0.045283 19.6491C0.101887 19.7887 0.215094 19.8981 0.354717 19.9585C0.358491 19.9585 0.35849 19.9585 0.362264 19.9623C0.422641 19.9849 0.49434 20 0.566038 20H4.52075C4.83396 20 5.08679 19.7472 5.08679 19.434C5.08679 19.1208 4.83019 18.8679 4.52075 18.8679H1.93208L5.70943 15.0906C5.93207 14.8679 5.93207 14.5094 5.70943 14.2906C5.49057 14.0679 5.13207 14.0679 4.90943 14.2906Z" fill="white"/>
<path d="M19.4338 14.9132C19.1206 14.9132 18.8678 15.166 18.8678 15.4793V18.0642L15.0904 14.2906C14.8678 14.0679 14.5093 14.0679 14.2904 14.2906C14.0678 14.5132 14.0678 14.8717 14.2904 15.0906L18.0678 18.8679H15.4828C15.1696 18.8679 14.9168 19.1208 14.9168 19.434C14.9168 19.7472 15.1696 20 15.4828 20H19.4338C19.5055 20 19.5772 19.9849 19.6413 19.9585C19.6451 19.9585 19.6451 19.9585 19.6489 19.9547C19.7885 19.8981 19.8979 19.7849 19.9583 19.6453C19.9583 19.6415 19.9583 19.6415 19.9621 19.6377C19.9847 19.5774 19.9998 19.5057 19.9998 19.434V15.4793C19.9998 15.1698 19.747 14.9132 19.4338 14.9132Z" fill="white"/>
</g>
<defs>
<clipPath id="clip0_2_236">
<rect width="20" height="20" fill="white"/>
</clipPath>
</defs>
</svg>
