<svg width="20" height="20" viewBox="0 0 20 20" fill="none" xmlns="http://www.w3.org/2000/svg">
<path d="M0.566038 3.10943H2.83396C3.09057 4.23774 4.10189 5.08679 5.30943 5.08679C6.51698 5.08679 7.5283 4.24151 7.78491 3.10943H19.434C19.7472 3.10943 20 2.8566 20 2.5434C20 2.23019 19.7472 1.97736 19.434 1.97736H7.78491C7.5283 0.845283 6.51698 0 5.30943 0C4.10189 0 3.09057 0.845283 2.83396 1.97736H0.566038C0.25283 1.97736 0 2.23019 0 2.5434C0 2.8566 0.25283 3.10943 0.566038 3.10943ZM5.30943 1.13208C6.08679 1.13208 6.72075 1.76604 6.72075 2.5434C6.72075 3.32075 6.08679 3.95472 5.30943 3.95472C4.53208 3.95472 3.89811 3.32075 3.89811 2.5434C3.89811 1.76604 4.53208 1.13208 5.30943 1.13208Z" fill="white"/>
<path d="M19.434 9.43396H17.166C16.9094 8.30566 15.8981 7.4566 14.6906 7.4566C13.483 7.4566 12.4717 8.30189 12.2151 9.43396H0.566038C0.25283 9.43396 0 9.68679 0 10C0 10.3132 0.25283 10.566 0.566038 10.566H12.2151C12.4717 11.6943 13.483 12.5434 14.6906 12.5434C15.8981 12.5434 16.9094 11.6981 17.166 10.566H19.434C19.7472 10.566 20 10.3132 20 10C20 9.68679 19.7472 9.43396 19.434 9.43396ZM14.6906 11.4113C13.9132 11.4113 13.2792 10.7774 13.2792 10C13.2792 9.22264 13.9132 8.58868 14.6906 8.58868C15.4679 8.58868 16.1019 9.22264 16.1019 10C16.1019 10.7774 15.4679 11.4113 14.6906 11.4113Z" fill="white"/>
<path d="M19.434 16.8906H10.9208C10.6642 15.7623 9.65283 14.9132 8.44528 14.9132C7.23774 14.9132 6.22642 15.7585 5.96981 16.8906H0.566038C0.25283 16.8906 0 17.1434 0 17.4566C0 17.7698 0.25283 18.0226 0.566038 18.0226H5.96604C6.22264 19.1509 7.23396 20 8.44151 20C9.64906 20 10.6604 19.1547 10.917 18.0226H19.434C19.7472 18.0226 20 17.7698 20 17.4566C20 17.1434 19.7472 16.8906 19.434 16.8906ZM8.44151 18.8679C7.66415 18.8679 7.03019 18.234 7.03019 17.4566C7.03019 16.6792 7.66415 16.0453 8.44151 16.0453C9.21887 16.0453 9.85283 16.6792 9.85283 17.4566C9.85283 18.234 9.21887 18.8679 8.44151 18.8679Z" fill="white"/>
</svg>
