<svg width="26" height="26" viewBox="0 0 26 26" fill="none" xmlns="http://www.w3.org/2000/svg">
<ellipse cx="12.6182" cy="12.6182" rx="12.6182" ry="12.6182" fill="#33C5F3"/>
<g clip-path="url(#clip0_2_348)">
<path d="M21.6142 12.101C21.5632 11.3188 20.9068 10.7066 20.1177 10.7066C19.9102 10.7066 19.73 10.5705 19.662 10.3631C19.5395 9.97533 19.3797 9.59781 19.1926 9.23389C19.094 9.04002 19.1246 8.81555 19.2708 8.6659C19.832 8.10471 19.866 7.21022 19.3457 6.62862C19.1144 6.37014 18.8661 6.11845 18.6042 5.88718C18.0226 5.37021 17.1281 5.40422 16.5669 5.962C16.4207 6.10825 16.1928 6.13886 16.0023 6.04023C15.6384 5.85317 15.2609 5.69331 14.8732 5.57087C14.6691 5.50625 14.5297 5.32259 14.5297 5.11512C14.5297 4.32606 13.9175 3.66964 13.1352 3.61862C12.7917 3.59482 12.4414 3.59482 12.1012 3.61862C11.319 3.66964 10.7068 4.32606 10.7068 5.11512C10.7068 5.32259 10.5707 5.50285 10.3633 5.57087C9.97554 5.69671 9.59802 5.85317 9.2341 6.04023C9.04363 6.13886 8.81576 6.10825 8.66611 5.962C8.10832 5.40422 7.21382 5.37361 6.63223 5.89058C6.37034 6.12186 6.12206 6.37014 5.89078 6.63202C5.37381 7.21362 5.40782 8.10811 5.96561 8.6693C6.11186 8.81555 6.14247 9.04342 6.04384 9.23389C5.85677 9.59781 5.69692 9.97533 5.57448 10.3631C5.50986 10.5671 5.3262 10.7066 5.11873 10.7066C4.32967 10.7066 3.67325 11.3188 3.62223 12.101C3.61203 12.2711 3.60522 12.4446 3.60522 12.618C3.60522 12.7915 3.61203 12.9649 3.62223 13.135C3.67325 13.9172 4.32967 14.5294 5.11873 14.5294C5.3262 14.5294 5.50646 14.6655 5.57448 14.873C5.69692 15.2573 5.85677 15.6382 6.04384 16.0021C6.14247 16.196 6.11186 16.4239 5.96561 16.5701C5.40442 17.1313 5.37041 18.0258 5.89078 18.6074C6.12206 18.8659 6.37034 19.1176 6.63223 19.3488C7.21382 19.8658 8.10832 19.8318 8.66951 19.274C8.81576 19.1278 9.04363 19.0972 9.2341 19.1958C9.59462 19.3829 9.97554 19.5427 10.3633 19.6651C10.5673 19.7298 10.7068 19.9134 10.7068 20.1209C10.7068 20.91 11.319 21.5664 12.1012 21.6174C12.2713 21.6276 12.4448 21.6344 12.6182 21.6344C12.7917 21.6344 12.9651 21.6276 13.1352 21.6174C13.9175 21.5664 14.5297 20.91 14.5297 20.1209C14.5297 19.9134 14.6657 19.7332 14.8732 19.6651C15.2609 19.5393 15.6384 19.3829 16.0023 19.1958C16.1962 19.0972 16.4207 19.1278 16.5703 19.274C17.1315 19.8352 18.026 19.8692 18.6076 19.3488C18.8661 19.1176 19.1178 18.8693 19.3491 18.6074C19.866 18.0258 19.832 17.1313 19.2742 16.5701C19.128 16.4239 19.0974 16.196 19.196 16.0021C19.3831 15.6382 19.5429 15.2607 19.6654 14.873C19.73 14.6689 19.9136 14.5294 20.1211 14.5294C20.9102 14.5294 21.5666 13.9172 21.6176 13.135C21.6278 12.9649 21.6346 12.7915 21.6346 12.618C21.6346 12.4446 21.6244 12.2711 21.6142 12.101ZM20.5973 13.067C20.5803 13.3152 20.3694 13.5057 20.1177 13.5057C19.4647 13.5057 18.8933 13.9274 18.6926 14.5567C18.5872 14.89 18.4512 15.2165 18.2879 15.5294C17.9818 16.1178 18.0906 16.8252 18.5498 17.2878C18.7267 17.4646 18.7403 17.7503 18.5838 17.9238C18.3797 18.155 18.1553 18.3761 17.9274 18.5802C17.7505 18.7366 17.4648 18.7196 17.2914 18.5462C16.8288 18.0836 16.1248 17.9782 15.533 18.2843C15.2201 18.4441 14.8936 18.5802 14.5603 18.689C13.9311 18.8897 13.5093 19.4645 13.5093 20.1175C13.5093 20.3692 13.3155 20.5801 13.0672 20.5971C12.7679 20.6175 12.4652 20.6175 12.1659 20.5971C11.9176 20.5801 11.7271 20.3692 11.7271 20.1175C11.7271 19.4679 11.3054 18.8931 10.6762 18.6924C10.3429 18.587 10.0164 18.4509 9.70345 18.2877C9.47898 18.1721 9.2375 18.1142 8.99942 18.1142C8.61169 18.1142 8.23076 18.2639 7.94507 18.5496C7.76821 18.7264 7.48251 18.74 7.30906 18.5836C7.07778 18.3795 6.85671 18.155 6.65264 17.9272C6.49619 17.7503 6.51319 17.4646 6.68665 17.2912C7.1492 16.8286 7.25464 16.1246 6.94854 15.5328C6.78528 15.2199 6.64924 14.8934 6.5438 14.5601C6.34313 13.9308 5.76834 13.5091 5.11533 13.5091C4.86364 13.5091 4.65277 13.3152 4.63577 13.067C4.63237 12.9207 4.62556 12.7677 4.62556 12.618C4.62556 12.4684 4.63237 12.3153 4.63917 12.1657C4.65617 11.9174 4.86704 11.7269 5.11873 11.7269C5.76834 11.7269 6.34313 11.3052 6.5438 10.676C6.64924 10.3427 6.78528 10.0161 6.94854 9.70324C7.25464 9.11485 7.1458 8.40741 6.68665 7.94486C6.50979 7.768 6.49619 7.48231 6.65264 7.30885C6.85671 7.07757 7.08118 6.8565 7.30906 6.65243C7.48591 6.49598 7.77161 6.51299 7.94507 6.68644C8.40762 7.149 9.11166 7.25443 9.70345 6.94833C10.0164 6.78848 10.3429 6.65243 10.6762 6.5436C11.3054 6.34293 11.7271 5.76814 11.7271 5.11512C11.7271 4.86344 11.921 4.65257 12.1693 4.63556C12.4686 4.61516 12.7713 4.61516 13.0706 4.63556C13.3189 4.65257 13.5093 4.86344 13.5093 5.11512C13.5093 5.76474 13.9311 6.33953 14.5603 6.54019C14.8936 6.64563 15.2201 6.78167 15.533 6.94493C16.1214 7.25103 16.8288 7.14219 17.2914 6.68304C17.4682 6.50618 17.7539 6.49258 17.9274 6.64903C18.1587 6.8531 18.3797 7.07757 18.5838 7.30545C18.7403 7.48231 18.7233 7.768 18.5498 7.94486C18.0872 8.40741 17.9818 9.11145 18.2879 9.70324C18.4512 10.0161 18.5872 10.3427 18.6926 10.676C18.8933 11.3052 19.4681 11.7269 20.1211 11.7269C20.3728 11.7269 20.5837 11.9208 20.6007 12.1691C20.6041 12.3153 20.6109 12.465 20.6109 12.618C20.6109 12.7711 20.6041 12.9207 20.5973 13.067Z" fill="white"/>
<path d="M12.6182 8.18317C10.1728 8.18317 8.18311 10.1728 8.18311 12.6182C8.18311 15.0637 10.1728 17.0533 12.6182 17.0533C15.0636 17.0533 17.0533 15.0637 17.0533 12.6182C17.0533 10.1728 15.0636 8.18317 12.6182 8.18317ZM12.6182 16.033C10.734 16.033 9.20344 14.4991 9.20344 12.6182C9.20344 10.7374 10.7374 9.2035 12.6182 9.2035C14.499 9.2035 16.0329 10.7374 16.0329 12.6182C16.0329 14.4991 14.5024 16.033 12.6182 16.033Z" fill="white"/>
</g>
<defs>
<clipPath id="clip0_2_348">
<rect width="18.026" height="18.026" fill="white" transform="translate(3.60522 3.60522)"/>
</clipPath>
</defs>
</svg>
